<svg width="132" height="44" fill="none" xmlns="http://www.w3.org/2000/svg"><path d="M63.006 27.208h-2.815V16.24H56.93l-.146 1.22c-.377 3.104-.71 5.284-1.002 6.541-.285 1.251-.704 2.132-1.257 2.642-.553.51-1.3.76-2.241.747-.51 0-.96-.067-1.349-.2v-2.314c.353.121.684.182.993.182.322 0 .578-.146.766-.437.188-.298.364-.845.528-1.64.17-.802.392-2.11.665-3.926.28-1.822.516-3.544.71-5.166h8.409v13.319zm5.356-5.111c0 1.008.165 1.77.492 2.287.335.516.875.774 1.622.774.74 0 1.272-.255 1.594-.765.328-.516.492-1.282.492-2.296 0-1.008-.164-1.764-.492-2.268-.328-.504-.865-.756-1.612-.756-.741 0-1.276.252-1.604.756-.328.498-.492 1.254-.492 2.268zm7.042 0c0 1.658-.437 2.955-1.311 3.89-.875.935-2.093 1.403-3.654 1.403-.977 0-1.84-.213-2.587-.638a4.302 4.302 0 01-1.721-1.849c-.401-.802-.602-1.737-.602-2.806 0-1.664.435-2.957 1.303-3.88.869-.924 2.09-1.385 3.662-1.385.978 0 1.84.212 2.587.637a4.256 4.256 0 011.722 1.832c.401.795.601 1.727.601 2.796zm9.329-5.074v2.086h-4.255v8.099H77.7V17.023h7.033zm4.108 5.074c0 1.008.164 1.77.492 2.287.334.516.875.774 1.622.774.74 0 1.272-.255 1.594-.765.328-.516.492-1.282.492-2.296 0-1.008-.164-1.764-.492-2.268-.328-.504-.866-.756-1.613-.756-.74 0-1.275.252-1.603.756-.328.498-.492 1.254-.492 2.268zm7.042 0c0 1.658-.437 2.955-1.312 3.89-.874.935-2.092 1.403-3.653 1.403-.978 0-1.84-.213-2.587-.638a4.301 4.301 0 01-1.722-1.849c-.4-.802-.6-1.737-.6-2.806 0-1.664.433-2.957 1.302-3.88.868-.924 2.089-1.385 3.662-1.385.978 0 1.84.212 2.587.637a4.257 4.257 0 011.722 1.832c.4.795.601 1.727.601 2.796zm10.722-5.074v2.086h-3.334v8.099h-2.778v-8.099h-3.344v-2.086h9.456zm4.592 0v4.027c0 .425-.07 1.463-.21 3.115l4.701-7.142h3.343v10.185h-2.687v-4.063c0-.723.06-1.743.182-3.061l-4.683 7.124h-3.334V17.023h2.688zm20.014 0v10.185h-2.788v-8.099h-3.689v8.099h-2.779V17.023h9.256z" fill="#fff"/><path d="M11.423 19.781l-5.196-3.057 15.928 9.383-10.732-6.326zm10.732 6.326l15.928-9.383-5.196 3.057-10.732 6.326z" fill="#FFE26E"/><path d="M0 13.053l3.91 2.305a3.023 3.023 0 011.947-1.062l16.298-2.001-16.298 2.002A3.024 3.024 0 003.91 15.36l2.317 1.365 5.196 3.057 10.732 6.326 10.732-6.326 5.196-3.057 6.227-3.67L22.155 0 0 13.053z" fill="#96C9EF"/><path d="M4.71 41.875l-1.517-8.343-3.034 9.86 4.551-1.517z" fill="#55A2FF"/><path d="M6.227 16.724v9.223c0 2.496 2.086 4.733 5.393 6.258a25.59 25.59 0 0010.535 2.086v-8.184L6.227 16.724z" fill="#D0E6F8"/><path d="M22.155 26.107v8.184a25.59 25.59 0 0010.535-2.086c3.307-1.525 5.393-3.762 5.393-6.258v-9.223l-15.928 9.383z" fill="#DBECFA"/><path d="M3.193 30.498a.759.759 0 01-.758-.758V17.308a3.798 3.798 0 013.33-3.764l16.297-2.002a.759.759 0 01.185 1.506L5.95 15.05a2.276 2.276 0 00-1.999 2.258V29.74a.758.758 0 01-.758.758z" fill="#57A4FF"/><path d="M6.227 32.015a3.034 3.034 0 11-6.068 0 3.034 3.034 0 016.068 0z" fill="#398DF3"/></svg>