<svg width="132" height="44" viewBox="0 0 132 44" fill="none" xmlns="http://www.w3.org/2000/svg">
<path d="M63.006 27.2079H60.1911V16.2397H56.9298L56.784 17.4604C56.4075 20.5638 56.0735 22.7441 55.7819 24.0012C55.4965 25.2523 55.0775 26.1329 54.5248 26.6431C53.9721 27.1532 53.2251 27.4022 52.2838 27.3901C51.7736 27.3901 51.3242 27.3233 50.9355 27.1897V24.8758C51.2878 24.9972 51.6188 25.058 51.9285 25.058C52.2504 25.058 52.5055 24.9122 52.6937 24.6207C52.882 24.3231 53.0581 23.7765 53.2221 22.9809C53.3921 22.1793 53.6138 20.8705 53.8871 19.0546C54.1665 17.2327 54.4033 15.5109 54.5977 13.8894H63.006V27.2079Z" fill="white"/>
<path d="M68.3625 22.0973C68.3625 23.1054 68.5265 23.8676 68.8544 24.3839C69.1885 24.9001 69.729 25.1582 70.476 25.1582C71.2169 25.1582 71.7483 24.9031 72.0702 24.393C72.3981 23.8767 72.5621 23.1115 72.5621 22.0973C72.5621 21.0892 72.3981 20.333 72.0702 19.829C71.7422 19.3249 71.2048 19.0729 70.4578 19.0729C69.7168 19.0729 69.1824 19.3249 68.8544 19.829C68.5265 20.327 68.3625 21.0831 68.3625 22.0973ZM75.4044 22.0973C75.4044 23.7553 74.9671 25.0519 74.0926 25.9872C73.218 26.9224 72.0004 27.3901 70.4395 27.3901C69.4618 27.3901 68.5994 27.1775 67.8524 26.7524C67.1054 26.3212 66.5315 25.7048 66.1306 24.9031C65.7298 24.1014 65.5294 23.1662 65.5294 22.0973C65.5294 20.4332 65.9636 19.1397 66.8321 18.2165C67.7005 17.2934 68.9213 16.8319 70.4942 16.8319C71.472 16.8319 72.3344 17.0444 73.0814 17.4695C73.8284 17.8947 74.4023 18.505 74.8031 19.3006C75.204 20.0962 75.4044 21.0284 75.4044 22.0973Z" fill="white"/>
<path d="M84.7328 17.0232V19.1093H80.4785V27.2079H77.7V17.0232H84.7328Z" fill="white"/>
<path d="M88.8413 22.0973C88.8413 23.1054 89.0052 23.8676 89.3332 24.3839C89.6672 24.9001 90.2077 25.1582 90.9547 25.1582C91.6957 25.1582 92.2271 24.9031 92.5489 24.393C92.8769 23.8767 93.0409 23.1115 93.0409 22.0973C93.0409 21.0892 92.8769 20.333 92.5489 19.829C92.221 19.3249 91.6835 19.0729 90.9365 19.0729C90.1956 19.0729 89.6611 19.3249 89.3332 19.829C89.0052 20.327 88.8413 21.0831 88.8413 22.0973ZM95.8831 22.0973C95.8831 23.7553 95.4458 25.0519 94.5713 25.9872C93.6968 26.9224 92.4791 27.3901 90.9183 27.3901C89.9405 27.3901 89.0781 27.1775 88.3311 26.7524C87.5841 26.3212 87.0102 25.7048 86.6094 24.9031C86.2085 24.1014 86.0081 23.1662 86.0081 22.0973C86.0081 20.4332 86.4424 19.1397 87.3108 18.2165C88.1793 17.2934 89.4 16.8319 90.9729 16.8319C91.9507 16.8319 92.8131 17.0444 93.5601 17.4695C94.3071 17.8947 94.881 18.505 95.2819 19.3006C95.6827 20.0962 95.8831 21.0284 95.8831 22.0973Z" fill="white"/>
<path d="M106.605 17.0232V19.1093H103.271V27.2079H100.493V19.1093H97.1494V17.0232H106.605Z" fill="white"/>
<path d="M111.197 17.0232V21.0497C111.197 21.4748 111.127 22.5133 110.987 24.1652L115.688 17.0232H119.031V27.2079H116.344V23.1449C116.344 22.4222 116.404 21.4019 116.526 20.084L111.843 27.2079H108.509V17.0232H111.197Z" fill="white"/>
<path d="M131.211 17.0232V27.2079H128.423V19.1093H124.734V27.2079H121.955V17.0232H131.211Z" fill="white"/>
<path d="M11.4227 19.7811L6.22705 16.7244L22.155 26.1065L11.4227 19.7811Z" fill="#FFE26E"/>
<path d="M22.1548 26.1065L38.0827 16.7244L32.8871 19.7811L22.1548 26.1065Z" fill="#FFE26E"/>
<path d="M0 13.0534L3.90997 15.3583C4.40083 14.7704 5.09689 14.3911 5.85685 14.2965L22.1549 12.2948L5.85685 14.2971C5.09689 14.3918 4.40083 14.7714 3.90997 15.3593L6.22702 16.7244L11.4226 19.7811L22.1549 26.1068L32.8873 19.7811L38.0829 16.7244L44.3099 13.0534L22.1549 0L0 13.0534Z" fill="#96C9EF"/>
<path d="M4.71011 41.8752L3.19325 33.532L0.15918 43.3921L4.71011 41.8752Z" fill="#55A2FF"/>
<path d="M6.22705 16.7244V25.9473C6.22705 28.4428 8.31287 30.6801 11.6197 32.2047C14.9445 33.6374 18.5354 34.3483 22.155 34.2905V26.1065L6.22705 16.7244Z" fill="#D0E6F8"/>
<path d="M22.1548 26.1065V34.2905C25.7744 34.3483 29.3652 33.6374 32.69 32.2047C35.9969 30.6801 38.0827 28.4428 38.0827 25.9473V16.7244L22.1548 26.1065Z" fill="#DBECFA"/>
<path d="M3.19317 30.4982C2.77432 30.4982 2.43457 30.1585 2.43457 29.7396V17.3082C2.43694 15.3934 3.86455 13.7796 5.76511 13.5439L22.0622 11.5416C22.4783 11.4906 22.857 11.7864 22.908 12.2025C22.9591 12.6183 22.6633 12.997 22.2474 13.048L5.95003 15.0503C4.80909 15.1903 3.95177 16.1591 3.95143 17.3082V29.7396C3.95143 30.1585 3.61202 30.4982 3.19317 30.4982Z" fill="#57A4FF"/>
<path d="M6.22697 32.0151C6.22697 33.6908 4.86866 35.0491 3.19325 35.0491C1.5175 35.0491 0.15918 33.6908 0.15918 32.0151C0.15918 30.3396 1.5175 28.9813 3.19325 28.9813C4.86866 28.9813 6.22697 30.3396 6.22697 32.0151Z" fill="#398DF3"/>
</svg>
